<?xml version="1.0" encoding="utf-8"?>
<!-- Generator: Adobe Illustrator 16.0.0, SVG Export Plug-In . SVG Version: 6.00 Build 0)  -->
<!DOCTYPE svg PUBLIC "-//W3C//DTD SVG 1.1//EN" "http://www.w3.org/Graphics/SVG/1.1/DTD/svg11.dtd">
<svg version="1.1" id="Layer_1" xmlns="http://www.w3.org/2000/svg" xmlns:xlink="http://www.w3.org/1999/xlink" x="0px" y="0px"
	 width="841.89px" height="595.28px" viewBox="0 0 841.89 595.28" enable-background="new 0 0 841.89 595.28" xml:space="preserve">
<rect x="323.073" y="281" fill="#FFFFFF" width="137.927" height="39.814"/>
<polygon fill="#FFFFFF" points="449.511,211.149 316.555,249.464 324.113,276.58 457.088,238.255 "/>
<g>
	<path d="M391.072,224.357"/>
	<line x1="398.774" y1="257.238" x2="415.991" y2="251.315"/>
	<polygon points="415.991,251.315 398.774,257.238 373.846,230.28 391.072,224.357 	"/>
</g>
<g>
	<path d="M430.226,214.25"/>
	<line x1="437.069" y1="249.953" x2="454.057" y2="244.729"/>
	<polygon points="454.057,244.729 437.069,249.953 413.238,219.472 430.226,214.25 	"/>
</g>
<g>
	<path d="M353.543,233.821"/>
	<line x1="360.701" y1="270.043" x2="379.136" y2="264.669"/>
	<polygon points="379.136,264.669 360.701,270.043 335.126,239.196 353.543,233.821 	"/>
</g>
<path fill="none" stroke="#FFFFFF" stroke-width="12" stroke-miterlimit="10" d="M455.205,91.775
	c-333.395,0-321.905,402.758,0,402.758V294.457H323.883"/>
<g>
	<polyline fill="none" stroke="#FFFFFF" stroke-width="12" stroke-miterlimit="10" points="504.747,209.284 504.747,363.965 
		504.747,501.581 	"/>
	<path fill="none" stroke="#FFFFFF" stroke-width="12" stroke-miterlimit="10" d="M504.747,406.464
		c96.955,0,175.553-70.449,175.553-157.344c0-86.9-78.598-157.344-175.553-157.344"/>
</g>
<g>
	<path d="M400.017,304.01"/>
	<line x1="400" y1="274.142" x2="418.298" y2="274.844"/>
	<polygon points="418.298,274.844 400,274.142 381.709,303.303 400.017,304.01 	"/>
</g>
<g>
	<path d="M441.086,303.806"/>
	<line x1="438.693" y1="273.49" x2="457.512" y2="274.018"/>
	<polygon points="457.512,274.018 438.693,273.49 422.276,303.291 441.086,303.806 	"/>
</g>
<g>
	<path d="M362.918,303.959"/>
	<line x1="360.688" y1="273.226" x2="380.706" y2="273.609"/>
	<polygon points="380.706,273.609 360.688,273.226 342.917,303.581 362.918,303.959 	"/>
</g>
<path d="M340.709,277.124c0,7.46-6.035,13.494-13.49,13.494c-7.465,0-13.498-6.034-13.498-13.494
	c0-7.459,6.033-13.494,13.498-13.494C334.675,263.63,340.709,269.665,340.709,277.124z"/>
</svg>
